<svg height="40" viewBox="0 0 512 512" width="40" xmlns="http://www.w3.org/2000/svg"><g id="flat"><path d="m401.818 128.076a24 24 0 0 0 -33.874-33.911 32 32 0 0 0 -48.379-25.623 23.994 23.994 0 0 0 -40.777-21.259 32 32 0 0 0 -62.435 3.97 31.991 31.991 0 0 0 -53.021 6.528 24 24 0 0 0 -41 24.554 24 24 0 0 0 -32.723 30.305 32 32 0 0 0 6.391 63.36h304a24 24 0 0 0 1.818-47.924z" fill="#ffcd01"/><path d="m401.818 128.076a24 24 0 0 0 -33.874-33.911 31.965 31.965 0 0 0 -13.325-24.191 581.066 581.066 0 0 1 -289.628 81.951 32.012 32.012 0 0 0 31.009 24.075h304a24 24 0 0 0 1.818-47.924z" fill="#ffba01"/><path d="m128 440h240l40-240h-320z" fill="#e6e6e6"/><path d="m343.064 200c-31.251 94.671-120.422 163-225.564 163-.782 0-1.558-.022-2.338-.03l12.838 77.03h240l40-240z" fill="#d3d3d3"/><path d="m216 200 8 240h48l8-240z" fill="#ff2b63"/><path d="m220.65 339.489 3.35 100.511h48l4.606-138.18a237.938 237.938 0 0 1 -55.956 37.669z" fill="#e5235f"/><path d="m344 200-24 240h48l40-240z" fill="#e5235f"/><path d="m280 464v-64a24 24 0 0 1 -24-24h-208a24 24 0 0 1 -24 24v64a24 24 0 0 1 24 24h208a24 24 0 0 1 24-24z" fill="#48bdff"/><path d="m256 376h-40.706a159.164 159.164 0 0 1 -191.294 80.294v7.706a24 24 0 0 1 24 24h208a24 24 0 0 1 24-24v-64a24 24 0 0 1 -24-24z" fill="#3ba4f2"/><path d="m88 200 40 240h48l-24-240z" fill="#ff2b63"/><path d="m117.5 363c-.782 0-1.558-.022-2.338-.03l12.838 77.03h48l-8.235-82.348a238.371 238.371 0 0 1 -50.265 5.348z" fill="#e5235f"/><rect fill="#b3b3b3" height="32" rx="16" width="352" x="72" y="168"/><circle cx="368" cy="136" fill="#ff891f" r="8"/><circle cx="320" cy="120" fill="#ff891f" r="8"/><circle cx="272" cy="88" fill="#ff9f03" r="8"/><circle cx="264" cy="136" fill="#ff891f" r="8"/><circle cx="224" cy="96" fill="#ff9f03" r="8"/><circle cx="192" cy="80" fill="#ff9f03" r="8"/><circle cx="160" cy="104" fill="#ff9f03" r="8"/><circle cx="192" cy="128" fill="#ff9f03" r="8"/><circle cx="120" cy="136" fill="#ff9f03" r="8"/><path d="m88 376h128v112h-128z" fill="#e6e6e6"/><circle cx="56" cy="432" fill="#fdc47d" r="8"/><path d="m464 488h-112l-24-216h160z" fill="#703f16"/><path d="m472 64a23.948 23.948 0 0 0 -8.928-18.672 16 16 0 1 0 -30.144 0 24 24 0 0 0 24.3 40.829 16 16 0 1 0 14.772-22.157z" fill="#ffcd01"/><path d="m485.657 146.343a8 8 0 0 0 -11.314 0l-32 32a8 8 0 0 0 -2.343 5.657v88a8 8 0 0 0 16 0v-84.687l29.657-29.656a8 8 0 0 0 0-11.314z" fill="#3bdabe"/><path d="m456 408c5.668 0 11.307-.125 16.926-.331l2.316-20.846a452.791 452.791 0 0 1 -139.491-45.065l5.749 51.732a456.78 456.78 0 0 0 114.5 14.51z" fill="#ffcd01"/><path d="m72 56c0-.708-.037-1.407-.1-2.1a15.993 15.993 0 1 0 -21.8-21.8c-.692-.06-1.391-.1-2.1-.1a24 24 0 1 0 24 24z" fill="#ffcd01"/><path d="m72 312c-.455 0-.9.031-1.348.068a23.938 23.938 0 0 0 -2.731-5.422 15.993 15.993 0 1 0 -27.921-10.646c0 .455.031.9.068 1.348a24 24 0 1 0 21.3 42.586 15.993 15.993 0 1 0 10.632-27.934z" fill="#ffcd01"/><path d="m88 463.291v24.709h128v-112h-.706a159.069 159.069 0 0 1 -127.294 87.291z" fill="#d3d3d3"/><path d="m176 400h-48a8 8 0 0 0 0 16h16v40a8 8 0 0 0 16 0v-40h16a8 8 0 0 0 0-16z" fill="#fdc47d"/><path d="m329.778 288h156.444l1.778-16h-160z" fill="#603813"/><rect fill="#b3b3b3" height="32" rx="16" width="176" x="320" y="248"/><g fill="#ffba01"><path d="m80 40a15.99 15.99 0 0 0 -9.425-14.575 15.954 15.954 0 0 1 -6.675 20.475c.06.692.1 1.391.1 2.1a24 24 0 0 1 -36.494 20.494 24 24 0 0 0 44.494-12.494c0-.708-.037-1.407-.1-2.1a15.985 15.985 0 0 0 8.1-13.9z"/><path d="m456 32a15.942 15.942 0 0 1 -.928 5.328 23.948 23.948 0 0 1 8.928 18.672 15.914 15.914 0 0 1 7.156 1.7 24.02 24.02 0 0 0 -8.084-12.376 15.935 15.935 0 0 0 -8.5-19.9 15.9 15.9 0 0 1 1.428 6.576z"/><path d="m478.575 65.425a15.985 15.985 0 0 1 -21.149 21.155 15.993 15.993 0 1 0 21.149-21.155z"/><path d="m449.232 78.157a24.027 24.027 0 0 1 -21.726-1.663 23.992 23.992 0 0 0 29.34 9.813 16.053 16.053 0 0 1 -7.614-8.15z"/><path d="m64 288a15.92 15.92 0 0 1 -4.079 10.646 23.938 23.938 0 0 1 2.731 5.422c.445-.037.893-.068 1.348-.068a15.935 15.935 0 0 1 5.259.9 15.933 15.933 0 0 0 -6.684-23.478 15.9 15.9 0 0 1 1.425 6.578z"/><path d="m78.575 313.425a15.981 15.981 0 0 1 -25.207 18.509 24.011 24.011 0 0 1 -25.862.56 24.006 24.006 0 0 0 33.862 7.44 15.988 15.988 0 1 0 17.207-26.509z"/></g><path d="m152 464a8 8 0 0 0 8-8v-17.915a158.75 158.75 0 0 1 -16 9.188v8.727a8 8 0 0 0 8 8z" fill="#fcae60"/><circle cx="248" cy="432" fill="#fdc47d" r="8"/></g></svg>